<svg id="svg" version="1.1" xmlns="http://www.w3.org/2000/svg" xmlns:xlink="http://www.w3.org/1999/xlink" width="400" height="219.76446492575525" viewBox="0, 0, 400,219.76446492575525"><g id="svgg"><path id="path0" d="M0.205 154.941 L 0.205 158.525 76.498 158.525 L 152.791 158.525 152.791 154.941 L 152.791 151.357 76.498 151.357 L 0.205 151.357 0.205 154.941 " stroke="none" fill="#e4bc0c" fill-rule="evenodd"></path><path id="path1" d="M2.253 61.751 L 2.253 123.502 18.433 123.502 L 34.612 123.502 34.664 91.994 L 34.716 60.485 50.298 85.900 L 65.880 111.316 73.749 111.363 L 81.618 111.411 97.286 85.093 L 112.954 58.775 113.079 65.588 C 113.148 69.335,113.217 78.907,113.233 86.858 C 113.249 94.810,113.323 106.307,113.398 112.409 L 113.533 123.502 129.612 123.502 L 145.690 123.502 145.554 79.229 C 145.479 54.878,145.417 27.090,145.417 17.477 L 145.417 0.000 130.927 0.009 L 116.436 0.018 95.362 35.530 L 74.287 71.042 52.660 35.521 L 31.033 0.000 16.643 0.000 L 2.253 0.000 2.253 61.751 M254.378 61.751 L 254.378 123.502 270.557 123.502 L 286.737 123.502 286.789 92.006 L 286.841 60.509 302.412 85.912 L 317.983 111.316 325.863 111.359 L 333.743 111.403 349.411 85.077 L 365.079 58.752 365.204 67.522 C 365.272 72.346,365.341 83.113,365.358 91.449 C 365.374 99.785,365.448 110.407,365.523 115.054 L 365.658 123.502 381.737 123.502 L 397.815 123.502 397.679 84.332 C 397.604 62.788,397.542 35.000,397.542 22.581 L 397.542 0.000 383.052 0.006 L 368.561 0.011 347.477 35.526 L 326.393 71.042 324.743 68.330 C 323.835 66.839,314.107 50.855,303.123 32.812 L 283.154 0.005 268.766 0.003 L 254.378 0.000 254.378 61.751 M194.060 36.784 C 172.691 38.967,166.912 58.875,183.073 74.635 L 184.102 75.639 182.323 76.693 C 168.179 85.067,162.410 93.409,163.440 103.994 C 165.498 125.127,200.343 131.997,220.346 115.213 L 222.259 113.608 227.941 119.288 L 233.624 124.967 236.838 121.164 C 238.606 119.072,240.109 117.213,240.179 117.032 C 240.270 116.794,238.731 115.128,234.630 111.025 L 228.955 105.347 230.197 103.112 C 232.651 98.700,236.981 86.331,236.296 85.693 C 236.184 85.589,226.679 82.523,226.641 82.579 C 226.617 82.614,226.477 83.287,226.330 84.076 C 225.561 88.183,222.012 98.093,221.394 97.856 C 220.941 97.682,200.458 77.130,200.668 77.060 C 203.645 76.068,212.819 68.724,215.134 65.480 C 220.595 57.826,219.483 46.771,212.709 41.381 C 208.373 37.930,200.892 36.087,194.060 36.784 M201.229 45.976 C 207.437 47.615,210.153 53.462,207.359 59.175 C 205.927 62.100,201.759 65.627,195.166 69.488 L 193.609 70.400 191.541 68.123 C 186.078 62.112,184.459 58.583,185.142 54.173 C 186.137 47.747,193.577 43.955,201.229 45.976 M213.825 107.542 C 201.734 118.419,178.655 116.116,175.424 103.711 C 173.541 96.480,177.945 89.862,188.922 83.432 L 190.783 82.341 202.867 94.435 L 214.951 106.529 213.825 107.542 M152.995 154.941 L 152.995 158.525 276.498 158.525 L 400.000 158.525 400.000 154.941 L 400.000 151.357 276.498 151.357 L 152.995 151.357 152.995 154.941 M307.220 179.016 C 298.711 180.071,293.740 185.423,294.720 192.473 C 295.442 197.666,298.574 200.024,307.852 202.358 C 316.155 204.446,318.075 205.579,318.075 208.394 C 318.075 214.420,305.713 215.279,297.494 209.824 C 296.864 209.406,296.323 209.098,296.293 209.140 C 296.263 209.182,295.662 210.507,294.959 212.084 L 293.681 214.951 294.357 215.530 C 298.939 219.447,310.761 220.993,317.456 218.549 C 323.902 216.197,327.079 210.232,325.041 204.309 C 323.657 200.287,320.953 198.675,311.418 196.191 C 303.622 194.160,301.729 192.842,302.190 189.769 C 302.922 184.884,311.690 183.644,319.506 187.321 C 320.636 187.852,321.594 188.250,321.634 188.204 C 321.690 188.140,323.503 183.726,323.949 182.568 C 324.057 182.286,321.300 180.836,319.508 180.233 C 316.237 179.132,310.701 178.584,307.220 179.016 M381.669 178.920 C 377.770 179.465,376.161 179.913,374.028 181.050 C 369.258 183.593,366.995 189.123,368.620 194.265 C 369.928 198.406,372.892 200.224,382.157 202.570 C 389.740 204.490,391.603 205.659,391.603 208.500 C 391.603 214.405,378.423 215.171,370.816 209.708 C 370.308 209.343,369.859 209.084,369.818 209.131 C 369.776 209.178,369.171 210.507,368.473 212.084 L 367.204 214.951 367.882 215.530 C 372.497 219.462,384.431 220.996,391.107 218.515 C 400.156 215.153,402.060 204.409,394.475 199.507 C 392.809 198.430,390.552 197.642,385.028 196.206 C 377.261 194.188,375.627 193.164,375.627 190.318 C 375.627 185.075,384.875 183.483,393.034 187.321 C 394.164 187.852,395.119 188.250,395.156 188.204 C 395.193 188.158,395.722 186.881,396.331 185.365 C 396.941 183.849,397.467 182.548,397.499 182.473 C 397.603 182.235,394.428 180.706,392.714 180.169 C 389.559 179.180,384.169 178.570,381.669 178.920 M0.000 199.283 L 0.000 219.150 14.951 219.150 L 29.903 219.150 29.903 215.975 L 29.903 212.801 18.740 212.801 L 7.578 212.801 7.578 207.476 L 7.578 202.151 17.204 202.151 L 26.831 202.151 26.831 198.976 L 26.831 195.801 17.204 195.801 L 7.578 195.801 7.578 190.783 L 7.578 185.765 18.433 185.765 L 29.288 185.765 29.288 182.591 L 29.288 179.416 14.644 179.416 L 0.000 179.416 0.000 199.283 M37.890 199.278 L 37.890 219.150 41.678 219.150 L 45.466 219.150 45.518 205.948 L 45.571 192.747 56.318 205.948 L 67.065 219.150 70.194 219.150 L 73.323 219.150 73.323 199.283 L 73.323 179.416 69.638 179.416 L 65.953 179.416 65.900 192.674 L 65.847 205.932 55.090 192.726 L 44.332 179.519 41.111 179.462 L 37.890 179.406 37.890 199.278 M78.648 182.591 L 78.648 185.765 85.305 185.765 L 91.961 185.765 91.961 202.458 L 91.961 219.150 95.648 219.150 L 99.334 219.150 99.334 202.458 L 99.334 185.765 105.991 185.765 L 112.647 185.765 112.647 182.591 L 112.647 179.416 95.648 179.416 L 78.648 179.416 78.648 182.591 M117.972 199.283 L 117.972 219.150 132.924 219.150 L 147.875 219.150 147.875 215.975 L 147.875 212.801 136.713 212.801 L 125.550 212.801 125.550 207.476 L 125.550 202.151 135.074 202.151 L 144.598 202.151 144.598 198.976 L 144.598 195.801 135.074 195.801 L 125.550 195.801 125.550 190.783 L 125.550 185.765 136.303 185.765 L 147.056 185.765 147.056 182.591 L 147.056 179.416 132.514 179.416 L 117.972 179.416 117.972 199.283 M155.863 199.268 L 155.863 219.150 159.652 219.150 L 163.441 219.150 163.441 213.415 L 163.441 207.680 168.553 207.680 L 173.666 207.680 177.359 212.982 C 179.391 215.898,181.215 218.481,181.412 218.723 C 181.761 219.149,181.893 219.161,185.823 219.105 L 189.874 219.048 185.377 212.626 L 180.880 206.204 182.341 205.473 C 190.757 201.263,191.609 188.141,183.826 182.588 C 182.207 181.433,180.666 180.745,178.187 180.072 L 176.242 179.543 166.052 179.464 L 155.863 179.386 155.863 199.268 M197.235 199.268 L 197.235 219.150 201.024 219.150 L 204.813 219.150 204.813 213.518 L 204.813 207.885 209.268 207.885 C 218.279 207.885,222.562 206.918,225.834 204.144 C 232.540 198.459,232.047 187.147,224.884 182.386 C 220.962 179.778,219.713 179.569,207.424 179.469 L 197.235 179.386 197.235 199.268 M237.583 199.283 L 237.583 219.150 241.372 219.150 L 245.161 219.150 245.161 213.415 L 245.161 207.680 250.356 207.680 L 255.550 207.680 259.521 213.407 L 263.492 219.133 267.665 219.141 C 270.974 219.148,271.796 219.097,271.636 218.894 C 271.526 218.753,269.477 215.838,267.084 212.416 C 262.783 206.268,262.559 205.853,263.517 205.840 C 264.050 205.833,266.858 203.767,267.858 202.647 C 272.565 197.372,271.949 187.720,266.623 183.287 C 262.609 179.947,259.911 179.419,246.851 179.417 L 237.583 179.416 237.583 199.283 M278.955 199.283 L 278.955 219.150 282.744 219.150 L 286.534 219.150 286.534 199.283 L 286.534 179.416 282.744 179.416 L 278.955 179.416 278.955 199.283 M332.616 199.283 L 332.616 219.150 347.568 219.150 L 362.519 219.150 362.519 215.975 L 362.519 212.801 351.357 212.801 L 340.195 212.801 340.195 207.476 L 340.195 202.151 349.821 202.151 L 359.447 202.151 359.447 198.976 L 359.447 195.801 349.821 195.801 L 340.195 195.801 340.195 190.783 L 340.195 185.765 351.050 185.765 L 361.905 185.765 361.905 182.591 L 361.905 179.416 347.261 179.416 L 332.616 179.416 332.616 199.283 M175.582 186.251 C 179.701 187.405,181.362 189.503,181.362 193.548 C 181.362 196.385,180.956 197.516,179.423 198.950 C 177.208 201.022,175.860 201.324,168.817 201.328 L 163.441 201.331 163.441 193.525 L 163.441 185.718 168.920 185.819 C 173.100 185.895,174.679 185.998,175.582 186.251 M216.952 186.250 C 221.047 187.398,222.734 189.558,222.734 193.651 C 222.734 199.578,219.840 201.321,209.985 201.328 L 204.813 201.331 204.813 193.525 L 204.813 185.718 210.292 185.819 C 214.467 185.895,216.052 185.998,216.952 186.250 M257.505 186.253 C 265.719 188.539,265.411 199.368,257.082 201.105 C 256.448 201.237,253.743 201.331,250.579 201.331 L 245.161 201.331 245.161 193.523 L 245.161 185.715 250.742 185.819 C 254.980 185.899,256.608 186.003,257.505 186.253 " stroke="none" fill="#041434" fill-rule="evenodd"></path></g></svg>