<?xml version="1.0" standalone="no"?>
<!DOCTYPE svg PUBLIC "-//W3C//DTD SVG 20010904//EN"
 "http://www.w3.org/TR/2001/REC-SVG-20010904/DTD/svg10.dtd">
<svg version="1.0" xmlns="http://www.w3.org/2000/svg"
 width="1953.000000pt" height="1073.000000pt" viewBox="0 0 1953.000000 1073.000000"
 preserveAspectRatio="xMidYMid meet">

<g transform="translate(0.000000,1073.000000) scale(0.100000,-0.100000)"
fill="#000000" stroke="none">
<path d="M110 7710 l0 -3010 785 0 785 0 0 1545 c0 850 3 1545 8 1545 4 0 349
-559 768 -1243 l761 -1242 384 -2 384 -2 765 1285 c421 707 768 1287 771 1289
6 4 19 -1894 19 -2732 l0 -443 785 0 785 0 -5 1618 c-3 889 -8 2244 -11 3010
l-6 1392 -702 -2 -701 -3 -1025 -1727 c-564 -950 -1029 -1726 -1033 -1725 -5
2 -482 780 -1060 1730 l-1052 1727 -702 0 -703 0 0 -3010z"/>
<path d="M12420 7710 l0 -3010 785 0 785 0 0 1545 c0 850 3 1545 8 1545 4 -1
349 -560 767 -1243 l761 -1242 384 0 385 0 756 1270 c416 699 764 1279 772
1290 15 18 16 -23 17 -461 0 -264 3 -981 7 -1592 l6 -1112 783 0 784 0 -5
1283 c-3 705 -8 2059 -11 3010 l-6 1727 -702 0 -701 -1 -1025 -1726 c-564
-950 -1029 -1726 -1035 -1725 -5 1 -482 777 -1060 1726 l-1050 1726 -702 0
-703 0 0 -3010z"/>
<path d="M9365 8915 c-349 -55 -618 -222 -763 -477 -117 -205 -140 -520 -54
-768 27 -78 87 -193 144 -277 51 -77 179 -234 218 -268 12 -11 35 -36 51 -56
l29 -37 -73 -43 c-211 -125 -444 -296 -575 -423 -137 -132 -253 -308 -307
-465 -63 -188 -72 -440 -20 -616 129 -438 571 -746 1170 -815 118 -13 410 -13
533 1 398 44 762 200 1051 449 l83 73 278 -278 277 -277 163 192 163 192 -282
282 -282 282 52 89 c129 222 265 596 303 830 l7 41 -226 73 c-125 40 -229 70
-231 68 -3 -3 -16 -52 -29 -110 -30 -134 -77 -286 -126 -410 -35 -87 -94 -214
-106 -227 -2 -2 -235 227 -518 510 l-513 513 131 81 c355 219 562 414 667 631
71 147 84 210 84 395 -1 181 -18 258 -83 388 -119 238 -359 398 -677 452 -136
23 -408 26 -539 5z m440 -420 c154 -33 270 -117 332 -241 31 -65 37 -87 41
-161 13 -243 -103 -407 -453 -640 -49 -33 -130 -83 -180 -113 l-90 -52 -82 86
c-239 250 -329 409 -340 596 -7 105 8 179 53 269 62 123 198 222 355 255 86
19 277 19 364 1z m109 -2375 l591 -591 -40 -36 c-262 -235 -587 -353 -973
-353 -276 1 -452 42 -637 149 -89 51 -215 182 -253 261 -48 102 -68 220 -54
329 32 259 165 443 471 653 113 77 279 178 294 178 5 0 276 -266 601 -590z"/>
<path d="M7460 3165 l0 -175 6035 0 6035 0 0 175 0 175 -6035 0 -6035 0 0
-175z"/>
<path d="M14937 1975 c-174 -33 -297 -93 -397 -194 -104 -104 -150 -220 -150
-374 0 -172 68 -301 210 -396 85 -56 186 -92 448 -161 261 -68 324 -88 378
-123 132 -84 150 -214 45 -318 -146 -145 -519 -142 -831 7 -52 25 -110 57
-128 71 -19 14 -37 21 -42 17 -4 -5 -34 -67 -66 -138 l-58 -129 34 -28 c86
-72 295 -154 475 -185 146 -25 389 -23 520 4 210 44 379 158 456 307 50 94 63
161 57 284 -4 91 -9 108 -42 175 -25 51 -53 90 -92 125 -106 97 -219 144 -543
226 -274 69 -359 103 -418 166 -63 69 -56 197 15 272 70 74 177 107 350 107
167 0 356 -47 490 -121 l52 -29 9 22 c5 13 30 75 55 138 25 63 46 117 46 121
0 12 -133 77 -212 103 -139 47 -204 57 -398 61 -136 3 -206 1 -263 -10z"/>
<path d="M18527 1974 c-172 -31 -296 -92 -397 -193 -108 -109 -150 -214 -150
-371 0 -180 64 -301 211 -399 84 -56 184 -92 449 -161 126 -33 256 -70 288
-82 153 -57 218 -146 191 -262 -49 -212 -452 -270 -830 -118 -75 30 -170 81
-201 109 -9 8 -21 13 -26 10 -4 -3 -35 -65 -67 -138 l-59 -132 34 -28 c163
-137 556 -229 854 -200 150 15 224 35 342 91 204 98 314 265 314 477 0 176
-57 290 -195 388 -99 71 -209 111 -505 185 -316 78 -415 134 -440 245 -14 62
5 126 52 180 73 83 172 115 358 115 166 0 307 -34 462 -110 l76 -38 58 140
c48 116 55 141 43 150 -38 27 -182 89 -249 108 -181 50 -443 65 -613 34z"/>
<path d="M10 1000 l0 -970 725 0 725 0 0 150 0 150 -545 0 -545 0 0 270 0 270
465 0 465 0 0 145 0 145 -465 0 -465 0 0 250 0 250 525 0 525 0 0 155 0 155
-705 0 -705 0 0 -970z"/>
<path d="M1860 1000 l0 -970 180 0 180 0 2 649 3 649 528 -649 529 -649 149 0
149 0 0 970 0 970 -180 0 -180 0 -2 -652 -3 -651 -530 651 -530 652 -147 0
-148 0 0 -970z"/>
<path d="M3850 1815 l0 -155 320 0 320 0 0 -815 0 -815 180 0 180 0 0 815 0
815 320 0 320 0 0 155 0 155 -820 0 -820 0 0 -155z"/>
<path d="M5760 1000 l0 -970 725 0 725 0 0 150 0 150 -545 0 -545 0 2 268 3
267 463 3 462 2 0 145 0 145 -465 0 -465 0 0 250 0 250 525 0 525 0 0 155 0
155 -705 0 -705 0 0 -970z"/>
<path d="M7610 1000 l0 -970 180 0 180 0 0 280 0 280 224 0 c123 0 237 3 253
6 30 6 33 2 229 -280 l199 -285 193 -1 c105 0 192 2 192 5 0 3 -98 146 -219
317 l-218 312 66 33 c219 109 340 315 341 576 0 273 -121 478 -350 591 -188
92 -302 105 -882 106 l-388 0 0 -970z m945 645 c99 -21 166 -57 224 -120 64
-71 86 -133 86 -245 -1 -101 -14 -152 -58 -216 -59 -88 -154 -142 -289 -164
-35 -5 -172 -10 -305 -10 l-243 0 0 385 0 385 258 0 c188 0 276 -4 327 -15z"/>
<path d="M9630 1000 l0 -970 180 0 180 0 0 279 0 279 318 4 c302 5 321 6 414
31 265 71 434 221 502 447 27 86 32 259 12 360 -39 193 -157 346 -336 434
-188 92 -302 105 -882 106 l-388 0 0 -970z m942 646 c230 -49 351 -224 308
-449 -22 -118 -95 -210 -202 -256 -90 -38 -161 -46 -428 -46 l-255 0 -3 383
-2 382 257 0 c184 0 277 -4 325 -14z"/>
<path d="M11610 1000 l0 -970 180 0 180 0 0 280 0 280 224 0 c123 0 237 3 253
6 28 6 33 -1 228 -280 l199 -286 193 0 c106 0 193 2 193 3 0 2 -99 145 -220
318 l-219 313 76 40 c202 106 317 291 329 531 15 287 -109 512 -347 629 -186
92 -302 105 -881 106 l-388 0 0 -970z m998 632 c176 -63 255 -174 255 -357 -1
-187 -82 -297 -266 -358 -55 -18 -93 -21 -344 -25 l-283 -4 0 387 0 387 288
-4 c266 -4 292 -6 350 -26z"/>
<path d="M13630 1000 l0 -970 180 0 180 0 0 970 0 970 -180 0 -180 0 0 -970z"/>
<path d="M16250 1000 l0 -970 725 0 725 0 0 150 0 150 -545 0 -545 0 0 270 0
270 465 0 465 0 0 145 0 145 -465 0 -465 0 0 250 0 250 525 0 525 0 0 155 0
155 -705 0 -705 0 0 -970z"/>
</g>
</svg>
