<svg xmlns="http://www.w3.org/2000/svg" viewBox="0 0 1075.62 960.91"><defs><style>.cls-1{fill:#e3bf09;}</style></defs><title>Recurso 1</title><g id="Capa_2" data-name="Capa 2"><g id="Capa_1-2" data-name="Capa 1"><polygon class="cls-1" points="1075.62 400.61 1075.62 960.91 972.05 960.91 972.05 445.66 670.07 143.68 317.04 496.7 317.04 854.52 762.88 854.52 762.88 498.02 668.4 403.53 586.93 322.07 660.17 248.83 811.94 400.61 866.45 455.12 866.45 960.91 213.48 960.91 213.48 453.8 667.27 0 670.07 2.79 672.86 0 1073.47 400.61 1075.62 400.61"/><polygon class="cls-1" points="103.57 448.65 103.57 960.91 0 960.91 0 400.61 5.14 400.61 405.75 0 478.98 73.23 103.57 448.65"/></g></g></svg>